HIERARCHY
ROOT Hips
{
	OFFSET 0.00 0.00 0.00
	CHANNELS 6 Xposition Yposition Zposition Xrotation Yrotation Zrotation
	JOINT LeftUpLeg
	{
		OFFSET 3.34807 0.00000 0.00000
		CHANNELS 3 Xrotation Yrotation Zrotation
		JOINT LeftLeg
		{
			OFFSET 0.00000 -16.98552 0.00000
			CHANNELS 3 Xrotation Yrotation Zrotation
			JOINT LeftFoot
			{
				OFFSET 0.00000 -16.83686 0.00000
				CHANNELS 3 Xrotation Yrotation Zrotation
				JOINT LeftToeBase
				{
					OFFSET 0.00000 -1.59599 5.95633
					CHANNELS 3 Xrotation Yrotation Zrotation
					End Site
					{
						OFFSET 0.00000 0.00000 2.95275
					}
				}
			}
		}
	}
	JOINT RightUpLeg
	{
		OFFSET -3.34807 0.00000 0.00000
		CHANNELS 3 Xrotation Yrotation Zrotation
		JOINT RightLeg
		{
			OFFSET 0.00000 -16.98552 0.00000
			CHANNELS 3 Xrotation Yrotation Zrotation
			JOINT RightFoot
			{
				OFFSET 0.00000 -16.83686 0.00000
				CHANNELS 3 Xrotation Yrotation Zrotation
				JOINT RightToeBase
				{
					OFFSET 0.00000 -1.59599 5.95633
					CHANNELS 3 Xrotation Yrotation Zrotation
					End Site
					{
						OFFSET 0.00000 0.00000 2.95275
					}
				}
			}
		}
	}
	JOINT Spine
	{
		OFFSET 0.00000 0.03937 0.00000
		CHANNELS 3 Xrotation Yrotation Zrotation
		JOINT Spine1
		{
			OFFSET 0.00000 7.93124 0.00000
			CHANNELS 3 Xrotation Yrotation Zrotation
			JOINT Neck
			{
				OFFSET 0.00000 8.48368 0.00000
				CHANNELS 3 Xrotation Yrotation Zrotation
				JOINT Head
				{
					OFFSET 0.00000 6.65077 0.00000
					CHANNELS 3 Xrotation Yrotation Zrotation
					End Site
					{
						OFFSET 0.00000 4.52755 0.00000
					}
				}
			}
			JOINT LeftShoulder
			{
				OFFSET 0.00000 8.48368 0.00000
				CHANNELS 3 Xrotation Yrotation Zrotation
				JOINT LeftArm
				{
					OFFSET 7.74502 -0.00003 0.00000
					CHANNELS 3 Xrotation Yrotation Zrotation
					JOINT LeftForeArm
					{
						OFFSET 12.49824 -0.00005 0.00000
						CHANNELS 3 Xrotation Yrotation Zrotation
						JOINT LeftHand
						{
							OFFSET 9.88337 -0.00004 0.00000
							CHANNELS 3 Xrotation Yrotation Zrotation
							JOINT LeftHandThumb
							{
								OFFSET 0.00000 0.00000 0.00000
								CHANNELS 3 Xrotation Yrotation Zrotation
								End Site
								{
									OFFSET 0.00000 0.00000 3.93700
								}
							}
							JOINT L_Wrist_End
							{
								OFFSET 3.93700 -0.00001 0.00000
								CHANNELS 3 Xrotation Yrotation Zrotation
							}
						}
					}
				}
			}
			JOINT RightShoulder
			{
				OFFSET 0.00000 8.48368 0.00000
				CHANNELS 3 Xrotation Yrotation Zrotation
				JOINT RightArm
				{
					OFFSET -7.74502 -0.00003 0.00000
					CHANNELS 3 Xrotation Yrotation Zrotation
					JOINT RightForeArm
					{
						OFFSET -12.49824 -0.00005 0.00000
						CHANNELS 3 Xrotation Yrotation Zrotation
						JOINT RightHand
						{
							OFFSET -9.88337 -0.00004 0.00000
							CHANNELS 3 Xrotation Yrotation Zrotation
							JOINT RightHandThumb
							{
								OFFSET 0.00000 0.00000 0.00000
								CHANNELS 3 Xrotation Yrotation Zrotation
								End Site
								{
									OFFSET 0.00000 0.00000 3.93700
								}
							}
							JOINT R_Wrist_End
							{
								OFFSET -5.39369 -0.00002 0.00000
								CHANNELS 3 Xrotation Yrotation Zrotation
							}
						}
					}
				}
			}
		}
	}
}
MOTION
Frames: 15
Frame Time: 0.033332
 -57.3147 32.9495 -3.9592 34.8668 -67.0787 25.2871 -40.6517 -0.7508 1.2224 45.6998 -0.0000 0.0000 -21.6337 7.1431 -5.1051 3.6444 0.0000 0.0000 -44.3147 -17.0369 -15.9345 62.9994 -0.0000 0.0000 3.4857 -0.7049 33.2797 -18.8281 0.0000 -0.0000 2.3803 -3.2357 -3.1576 26.2646 -8.9272 -5.8472 -12.0600 4.7937 3.7909 17.9336 -14.1723 -0.2786 -2.9232 18.3099 28.7854 46.3993 -62.5923 -49.1663 -0.0004 -59.7406 -0.0002 -5.1450 -32.2053 11.3410 -0.0000 0.0000 -0.0000 -0.0000 0.0000 -0.0000 21.0121 -17.6860 -14.0095 -20.3397 46.8567 83.0272 -0.0002 39.9470 0.0001 57.7516 -66.6298 -119.7764 -0.0000 0.0000 -0.0000 -0.0000 0.0000 -0.0000
 -56.6588 33.7957 -4.0236 32.5378 -63.4153 23.9918 -37.8135 0.4126 -0.3995 35.9186 -0.0000 0.0000 -15.5107 3.1261 -7.0546 4.7245 -0.0000 0.0000 -43.2166 -19.8991 -18.0537 56.2911 -0.0000 0.0000 5.3783 -1.1029 34.0985 -18.2821 -0.0000 -0.0000 2.8174 -3.7272 -3.2489 25.0841 -8.7346 -4.8109 -12.4721 3.2776 3.7944 18.5922 -15.2624 0.3861 -3.1890 17.1829 29.6276 49.8683 -62.4543 -44.4597 -0.0004 -62.9200 -0.0003 -6.6826 -32.8260 11.1270 -0.0000 -0.0000 0.0000 -0.0000 -0.0000 0.0000 21.8603 -17.9640 -13.9628 -18.2939 47.1668 80.9294 -0.0002 41.3653 0.0001 56.7667 -66.7711 -119.6735 -0.0000 0.0000 -0.0000 -0.0000 0.0000 -0.0000
 -55.9192 34.8051 -4.1248 31.5931 -58.6440 23.3184 -34.4613 3.6106 -1.0775 24.0057 -0.0000 0.0000 -8.2825 -2.9383 -17.0725 9.6179 -0.0000 0.0000 -42.2451 -22.5461 -19.0949 48.5894 -0.0000 0.0000 8.9871 -2.6328 36.0859 -14.5332 -0.0000 -0.0000 2.9632 -4.2650 -2.3559 23.6221 -8.6668 -3.8663 -13.3498 1.9337 4.0163 20.3193 -16.9254 0.4606 -4.3292 15.5627 30.1497 52.0327 -62.0534 -39.8152 -0.0005 -65.8271 -0.0003 -6.1832 -32.6888 10.6021 -0.0000 0.0000 -0.0000 -0.0000 0.0000 -0.0000 21.3335 -18.4632 -14.0756 -15.3450 47.6756 79.8201 -0.0002 42.5354 0.0001 57.8970 -65.8502 -117.6308 -0.0000 0.0000 -0.0000 -0.0000 0.0000 -0.0000
 -55.1909 35.5219 -4.2640 32.5118 -55.2841 23.4614 -33.5083 3.6337 -0.3119 21.0950 -0.0000 0.0000 -11.2766 -6.1491 -26.9853 2.2106 0.0000 0.0000 -41.5923 -22.5650 -18.0438 42.8117 -0.0000 0.0000 13.0366 -4.7325 37.5631 -12.9957 -0.0000 0.0000 2.3443 -4.4192 -1.3474 22.3425 -8.2690 -2.9407 -13.9827 1.4005 4.3557 21.8447 -18.8639 0.4688 -4.8813 14.7820 30.1757 50.4180 -61.0301 -38.4119 -0.0005 -68.6290 -0.0004 -6.4007 -31.2654 9.7233 -0.0000 0.0000 -0.0000 -0.0000 0.0000 -0.0000 21.4480 -18.9065 -13.7197 -12.4896 49.0946 77.6197 -0.0002 44.2570 0.0001 58.6488 -64.3780 -115.5761 -0.0000 0.0000 -0.0000 -0.0000 0.0000 -0.0000
 -54.4658 35.7716 -4.3916 33.2303 -54.2126 23.2375 -35.0510 -0.7033 1.8198 33.6881 -0.0000 0.0000 -16.7750 4.0956 -21.5783 -1.8955 0.0000 -0.0000 -41.3955 -21.4837 -16.6288 39.9793 -0.0000 0.0000 15.5274 -6.4542 38.1407 -11.1489 -0.0000 -0.0000 1.1212 -4.4216 -0.6274 22.9800 -7.9627 -2.2988 -13.4126 1.1736 4.0425 21.6887 -19.2487 1.0233 -5.7437 14.6814 29.7687 47.7035 -59.7730 -38.7556 -0.0006 -70.8155 -0.0004 -6.9761 -37.9208 14.4348 -0.0000 0.0000 -0.0000 -0.0000 0.0000 -0.0000 21.4104 -19.1653 -13.1304 -11.5533 50.4796 75.7567 -0.0002 44.7853 0.0001 58.9769 -63.1268 -114.4913 -0.0000 0.0000 -0.0000 -0.0000 0.0000 -0.0000
 -53.6368 35.6036 -4.4929 33.5423 -55.8423 23.9433 -35.0930 -1.7213 4.6049 48.3021 -0.0000 0.0000 -18.5835 6.3701 -16.0371 -0.1096 0.0000 0.0000 -42.4431 -19.9351 -16.4498 40.3054 -0.0000 0.0000 15.5793 -6.9422 37.2694 -9.5058 -0.0000 -0.0000 1.4743 -4.0924 -0.7774 22.9248 -7.8713 -2.8053 -11.5698 1.8932 3.6012 21.2622 -18.9145 1.0209 -6.7880 15.3046 29.1490 43.5498 -57.9511 -41.8204 -0.0006 -71.7896 -0.0005 -8.4438 -38.2023 18.1326 -0.0000 0.0000 -0.0000 -0.0000 0.0000 -0.0000 20.7415 -18.7967 -13.6378 -12.8133 50.7334 76.7682 -0.0002 43.4234 0.0001 58.8709 -63.6444 -115.0009 -0.0000 0.0000 -0.0000 -0.0000 0.0000 -0.0000
 -52.6499 35.1835 -4.5826 35.1976 -57.4080 26.8631 -33.7649 -1.2178 6.2809 53.8839 -0.0000 0.0000 -17.7487 6.7326 -12.7576 0.7461 0.0000 -0.0000 -46.1871 -19.3634 -18.2529 42.2849 -0.0000 0.0000 14.4953 -6.1135 35.4827 -9.6099 0.0000 -0.0000 2.1667 -3.7423 -1.2288 22.4920 -8.2723 -4.3345 -9.9086 2.4790 3.0804 20.5791 -18.4614 0.7222 -7.2174 16.8437 28.0332 36.7990 -55.5888 -46.3941 -0.0006 -71.5944 -0.0005 -10.9679 -38.8262 23.6346 -0.0000 0.0000 -0.0000 -0.0000 0.0000 -0.0000 20.3859 -18.1592 -13.8227 -14.7190 48.8892 78.9678 -0.0002 42.8309 0.0001 58.5914 -65.0975 -116.7337 -0.0000 0.0000 -0.0000 -0.0000 0.0000 -0.0000
 -51.5177 34.6144 -4.7650 38.7384 -56.4640 30.1416 -33.9017 -1.6748 7.7082 50.9143 -0.0000 0.0000 -15.0679 3.9248 -15.3572 -8.4787 0.0000 0.0000 -51.7084 -19.8370 -19.9492 44.1270 -0.0000 0.0000 12.6684 -5.6774 34.0942 -8.6209 -0.0000 -0.0000 1.7234 -3.6479 -0.8313 23.1733 -8.5235 -4.9746 -9.7485 2.1479 2.5171 19.2732 -18.1549 0.5002 -6.8858 17.9753 26.7154 26.5443 -52.5322 -53.1325 -0.0006 -70.6933 -0.0004 -15.5233 -36.9096 31.5353 -0.0000 0.0000 -0.0000 -0.0000 0.0000 -0.0000 20.7343 -18.4728 -13.0949 -16.2565 46.9078 80.6440 -0.0002 43.8301 0.0001 54.0947 -67.0273 -119.7451 -0.0000 0.0000 -0.0000 -0.0000 0.0000 -0.0000
 -50.3293 33.8521 -4.9108 41.6265 -55.0852 31.9896 -34.7063 -3.6039 8.3985 47.0335 -0.0000 0.0000 -22.3131 0.9569 -22.3276 -6.0578 0.0000 0.0000 -56.4864 -19.4176 -20.7858 46.2031 -0.0000 0.0000 9.8709 -6.3661 34.2835 -6.5581 0.0000 0.0000 1.6213 -3.6955 0.1323 23.7175 -8.6988 -5.2254 -9.7206 2.0543 2.2873 17.9949 -17.8992 0.3449 -7.4310 17.9053 26.1430 18.3621 -49.0944 -60.0157 -0.0006 -69.9894 -0.0004 -15.6418 -40.0948 38.7768 -0.0000 -0.0000 0.0000 -0.0000 -0.0000 0.0000 21.2399 -18.4076 -12.6924 -16.8087 46.3715 81.4684 -0.0002 45.1482 0.0001 49.3511 -68.1067 -121.7386 -0.0000 0.0000 -0.0000 -0.0000 0.0000 -0.0000
 -49.0812 33.0404 -4.9693 44.0586 -54.4636 34.2388 -37.9708 -3.2265 7.1174 47.9943 0.0000 0.0000 -29.5164 3.0365 -20.0913 0.6719 0.0000 -0.0000 -61.3167 -17.8208 -21.8917 48.6989 -0.0000 0.0000 8.0248 -6.9135 34.3467 -4.8310 0.0000 -0.0000 1.8171 -3.5657 0.4258 24.1896 -8.8858 -5.8185 -9.1866 2.2847 2.5042 15.9409 -17.7001 0.4682 -8.1820 17.4771 25.9105 12.8966 -46.2701 -65.0660 -0.0006 -69.5339 -0.0004 4.3007 -35.3805 24.0577 -0.0000 -0.0000 0.0000 -0.0000 -0.0000 0.0000 21.3402 -18.0080 -12.7971 -18.0797 47.1623 82.5591 -0.0002 45.1741 0.0001 49.0790 -67.8483 -121.3874 -0.0000 0.0000 -0.0000 -0.0000 0.0000 -0.0000
 -47.9704 32.4185 -5.0138 45.3748 -54.7573 35.4113 -41.8742 -2.1382 5.9707 51.8684 -0.0000 0.0000 -33.3419 5.3177 -15.8654 2.7553 -0.0000 0.0000 -64.8486 -16.6624 -22.5425 50.5971 -0.0000 0.0000 8.3644 -6.8102 34.0470 -4.4378 0.0000 0.0000 1.9354 -3.3257 0.3062 25.6771 -8.9192 -6.2342 -9.1925 2.7694 3.1725 15.0750 -17.5411 0.7304 -8.0047 17.2543 25.8281 7.3069 -43.3429 -69.7040 -0.0005 -68.3817 -0.0004 9.4150 -35.2753 26.4112 -0.0000 0.0000 -0.0000 -0.0000 0.0000 -0.0000 20.9831 -17.3287 -12.7124 -20.9473 47.7346 84.7486 -0.0002 43.4845 0.0001 50.7889 -67.4190 -120.7464 -0.0000 0.0000 -0.0000 -0.0000 0.0000 -0.0000
 -47.0408 32.0267 -5.0282 46.8513 -55.4730 35.6181 -45.5954 -4.2606 5.6860 56.4664 -0.0000 0.0000 -33.9572 6.7383 -14.7200 2.0902 0.0000 -0.0000 -66.9877 -16.4993 -22.0000 51.1673 -0.0000 0.0000 10.5351 -6.3134 34.2522 -4.7993 -0.0000 -0.0000 1.4844 -3.0694 0.4313 27.2695 -8.3392 -5.7108 -9.1542 2.8285 3.3952 15.3965 -17.2845 1.0680 -8.1292 16.5893 25.7726 4.0929 -41.4116 -72.7646 -0.0005 -66.7958 -0.0003 11.8958 -35.5246 29.3170 -0.0000 0.0000 -0.0000 -0.0000 0.0000 -0.0000 20.4588 -16.7329 -12.6583 -23.4600 46.9346 86.8831 -0.0002 42.4987 0.0001 52.1228 -68.3413 -120.7432 -0.0000 0.0000 -0.0000 -0.0000 0.0000 -0.0000
 -46.3475 31.7846 -4.8986 47.2905 -57.0557 35.6589 -46.3151 -4.7100 5.3391 58.1091 -0.0000 0.0000 -35.2983 7.9704 -12.7329 2.6643 0.0000 0.0000 -67.3145 -16.1509 -21.4631 50.7854 -0.0000 0.0000 12.5976 -5.5473 34.4062 -4.7924 -0.0000 -0.0000 1.0688 -2.9524 0.3076 28.6259 -8.1952 -5.6179 -9.0982 3.2756 3.5342 16.4169 -17.0719 0.9392 -8.0333 16.5054 25.5045 2.7155 -39.2736 -74.3687 -0.0005 -65.6731 -0.0003 11.3630 -34.9341 27.4088 -0.0000 0.0000 -0.0000 -0.0000 0.0000 -0.0000 20.3748 -16.5298 -12.3770 -25.6912 45.6000 88.8160 -0.0002 42.4947 0.0001 50.4774 -70.7641 -123.4632 -0.0000 0.0000 -0.0000 -0.0000 0.0000 -0.0000
 -45.7980 31.6983 -4.7531 46.9994 -58.3130 35.1080 -46.5006 -4.6000 5.2808 58.9730 -0.0000 0.0000 -35.6576 8.2222 -11.7343 3.5165 0.0000 0.0000 -66.3884 -16.0966 -20.9196 49.1263 -0.0000 0.0000 14.0693 -5.0101 34.9183 -4.5186 -0.0000 0.0000 0.9097 -3.1294 0.2454 28.9973 -8.3179 -5.4930 -8.8994 3.7733 3.8414 17.0650 -17.0017 0.8306 -7.5442 16.7325 25.3767 2.4671 -37.8114 -74.9292 -0.0004 -64.8014 -0.0003 10.3918 -34.4214 26.3332 -0.0000 0.0000 -0.0000 -0.0000 0.0000 -0.0000 20.5660 -16.6406 -11.8293 -26.3422 43.3838 90.1297 -0.0002 43.7697 0.0001 48.0538 -72.7053 -126.9486 -0.0000 0.0000 -0.0000 -0.0000 0.0000 -0.0000
 -45.2291 31.8051 -4.6897 48.6934 -59.3700 35.3740 -47.5478 -4.2165 6.6378 59.2291 -0.0000 0.0000 -34.8565 7.8169 -11.0299 3.1317 0.0000 -0.0000 -63.9690 -15.7580 -18.0975 44.5535 -0.0000 0.0000 15.7743 -5.7882 36.3442 -3.6088 0.0000 0.0000 0.8434 -2.9435 0.7683 28.0678 -7.7572 -5.0993 -8.6595 3.9047 4.1324 17.0905 -16.9382 1.0536 -7.2375 16.5113 25.4960 3.0513 -36.9915 -74.9086 -0.0004 -64.1395 -0.0003 10.3588 -34.4002 26.3512 -0.0000 0.0000 -0.0000 -0.0000 0.0000 -0.0000 20.7582 -16.8452 -11.2422 -25.6207 41.2832 90.9080 -0.0002 45.0592 0.0001 42.2097 -74.4335 -132.4386 -0.0000 0.0000 -0.0000 -0.0000 0.0000 -0.0000
